HIERARCHY
ROOT Hips
{
  OFFSET 5.72205e-005 65.662 3.42586
  CHANNELS 6 Xposition Yposition Zposition Zrotation Xrotation Yrotation
  JOINT Chest
  {
    OFFSET 0 8.7983 -4.7612
    CHANNELS 3 Zrotation Xrotation Yrotation
    JOINT Chest2
    {
      OFFSET 0 8.0291 0.4195
      CHANNELS 3 Zrotation Xrotation Yrotation
      JOINT Chest3
      {
        OFFSET 0 9.9351 -2.2114
        CHANNELS 3 Zrotation Xrotation Yrotation
        JOINT Neck
        {
          OFFSET 0 22.3885 -0.4656
          CHANNELS 3 Zrotation Xrotation Yrotation
          JOINT Head
          {
            OFFSET -0.0001 12.643 3.4389
            CHANNELS 3 Zrotation Xrotation Yrotation
            End Site
            {
              OFFSET 0.0001 17.6655 0.5274
            }
          }
        }
        JOINT LeftCollar
        {
          OFFSET 2.2603 21.606 7.4023
          CHANNELS 3 Zrotation Xrotation Yrotation
          JOINT LeftShoulder
          {
            OFFSET 13.5163 -1.1332 -5.0146
            CHANNELS 3 Zrotation Xrotation Yrotation
            JOINT LeftElbow
            {
              OFFSET -0.0995 -28.05 -0.2431
              CHANNELS 3 Zrotation Xrotation Yrotation
              JOINT LeftWrist
              {
                OFFSET 0.0679 -23.3996 -0.1402
                CHANNELS 3 Zrotation Xrotation Yrotation
                JOINT LeftFinger1
                {
                  OFFSET 0.7932 -9.069 2.5189
                  CHANNELS 3 Zrotation Xrotation Yrotation
                  JOINT LeftFinger11
                  {
                    OFFSET -0.8272 -3.3923 0.5977
                    CHANNELS 3 Zrotation Xrotation Yrotation
                    JOINT LeftFinger12
                    {
                      OFFSET -0.5649 -2.3158 0.4082
                      CHANNELS 3 Zrotation Xrotation Yrotation
                      End Site
                      {
                        OFFSET -0.4919 -1.6479 0.2673
                      }
                    }
                  }
                }
                JOINT LeftFinger2
                {
                  OFFSET 0.9159 -9.2044 0.2193
                  CHANNELS 3 Zrotation Xrotation Yrotation
                  JOINT LeftFinger21
                  {
                    OFFSET 0.0117 -4.1944 -0.0248
                    CHANNELS 3 Zrotation Xrotation Yrotation
                    JOINT LeftFinger22
                    {
                      OFFSET 0.0071 -2.3249 -0.0142
                      CHANNELS 3 Zrotation Xrotation Yrotation
                      End Site
                      {
                        OFFSET -0.1475 -2.0882 0.0028
                      }
                    }
                  }
                }
                JOINT LeftFinger3
                {
                  OFFSET 0.6113 -8.7231 -2.0637
                  CHANNELS 3 Zrotation Xrotation Yrotation
                  JOINT LeftFinger31
                  {
                    OFFSET -0.1927 -3.8059 -0.2383
                    CHANNELS 3 Zrotation Xrotation Yrotation
                    JOINT LeftFinger32
                    {
                      OFFSET -0.1091 -2.1688 -0.1362
                      CHANNELS 3 Zrotation Xrotation Yrotation
                      End Site
                      {
                        OFFSET -0.2358 -1.9176 -0.0906
                      }
                    }
                  }
                }
                JOINT LeftFinger4
                {
                  OFFSET -0.6151 -8.0947 -3.5641
                  CHANNELS 3 Zrotation Xrotation Yrotation
                  JOINT LeftFinger41
                  {
                    OFFSET -0.4882 -2.341 -0.6462
                    CHANNELS 3 Zrotation Xrotation Yrotation
                    JOINT LeftFinger42
                    {
                      OFFSET -0.3575 -1.7167 -0.4742
                      CHANNELS 3 Zrotation Xrotation Yrotation
                      End Site
                      {
                        OFFSET -0.4187 -1.5237 -0.3496
                      }
                    }
                  }
                }
                JOINT LeftFinger0
                {
                  OFFSET -1.42 -1.8761 1.4223
                  CHANNELS 3 Zrotation Xrotation Yrotation
                  JOINT LeftFinger01
                  {
                    OFFSET -1.1471 -3.4929 2.6334
                    CHANNELS 3 Zrotation Xrotation Yrotation
                    JOINT LeftFinger02
                    {
                      OFFSET -0.823 -2.3 1.6571
                      CHANNELS 3 Zrotation Xrotation Yrotation
                      End Site
                      {
                        OFFSET -0.5822 -1.6914 1.1582
                      }
                    }
                  }
                }
              }
            }
          }
        }
        JOINT RightCollar
        {
          OFFSET -2.2603 21.606 7.4023
          CHANNELS 3 Zrotation Xrotation Yrotation
          JOINT RightShoulder
          {
            OFFSET -13.5187 -1.1334 -5.0155
            CHANNELS 3 Zrotation Xrotation Yrotation
            JOINT RightElbow
            {
              OFFSET 0.0994 -28.0499 -0.2431
              CHANNELS 3 Zrotation Xrotation Yrotation
              JOINT RightWrist
              {
                OFFSET -0.0679 -23.3996 -0.1402
                CHANNELS 3 Zrotation Xrotation Yrotation
                JOINT RightFinger1
                {
                  OFFSET -0.7932 -9.0691 2.5189
                  CHANNELS 3 Zrotation Xrotation Yrotation
                  JOINT RightFinger11
                  {
                    OFFSET 0.8272 -3.3923 0.5977
                    CHANNELS 3 Zrotation Xrotation Yrotation
                    JOINT RightFinger12
                    {
                      OFFSET 0.565 -2.3158 0.4082
                      CHANNELS 3 Zrotation Xrotation Yrotation
                      End Site
                      {
                        OFFSET 0.4919 -1.6479 0.2673
                      }
                    }
                  }
                }
                JOINT RightFinger2
                {
                  OFFSET -0.916 -9.2044 0.2193
                  CHANNELS 3 Zrotation Xrotation Yrotation
                  JOINT RightFinger21
                  {
                    OFFSET -0.0117 -4.1944 -0.0248
                    CHANNELS 3 Zrotation Xrotation Yrotation
                    JOINT RightFinger22
                    {
                      OFFSET -0.0071 -2.3249 -0.0142
                      CHANNELS 3 Zrotation Xrotation Yrotation
                      End Site
                      {
                        OFFSET 0.1475 -2.0882 0.0028
                      }
                    }
                  }
                }
                JOINT RightFinger3
                {
                  OFFSET -0.6113 -8.7231 -2.0637
                  CHANNELS 3 Zrotation Xrotation Yrotation
                  JOINT RightFinger31
                  {
                    OFFSET 0.1927 -3.8059 -0.2383
                    CHANNELS 3 Zrotation Xrotation Yrotation
                    JOINT RightFinger32
                    {
                      OFFSET 0.1091 -2.1688 -0.1362
                      CHANNELS 3 Zrotation Xrotation Yrotation
                      End Site
                      {
                        OFFSET 0.2358 -1.9176 -0.0906
                      }
                    }
                  }
                }
                JOINT RightFinger4
                {
                  OFFSET 0.6151 -8.0947 -3.564
                  CHANNELS 3 Zrotation Xrotation Yrotation
                  JOINT RightFinger41
                  {
                    OFFSET 0.4882 -2.341 -0.6462
                    CHANNELS 3 Zrotation Xrotation Yrotation
                    JOINT RightFinger42
                    {
                      OFFSET 0.3574 -1.7166 -0.4742
                      CHANNELS 3 Zrotation Xrotation Yrotation
                      End Site
                      {
                        OFFSET 0.4187 -1.5237 -0.3496
                      }
                    }
                  }
                }
                JOINT RightFinger0
                {
                  OFFSET 1.4199 -1.8761 1.4221
                  CHANNELS 3 Zrotation Xrotation Yrotation
                  JOINT RightFinger01
                  {
                    OFFSET 1.1472 -3.4929 2.6336
                    CHANNELS 3 Zrotation Xrotation Yrotation
                    JOINT RightFinger02
                    {
                      OFFSET 0.8229 -2.3 1.6571
                      CHANNELS 3 Zrotation Xrotation Yrotation
                      End Site
                      {
                        OFFSET 0.5822 -1.6914 1.1582
                      }
                    }
                  }
                }
              }
            }
          }
        }
      }
    }
  }
  JOINT RightHip
  {
    OFFSET -9.412 3.9771 -0.7758
    CHANNELS 3 Zrotation Xrotation Yrotation
    JOINT RightKnee
    {
      OFFSET -0.7531 -40.938 0
      CHANNELS 3 Zrotation Xrotation Yrotation
      JOINT RightAnkle
      {
        OFFSET 0 -40.1986 0
        CHANNELS 3 Zrotation Xrotation Yrotation
        JOINT RightToe
        {
          OFFSET 0 -4.4182 9.239
          CHANNELS 3 Zrotation Xrotation Yrotation
          End Site
          {
            OFFSET 0 0 6.1981
          }
        }
      }
    }
  }
  JOINT LeftHip
  {
    OFFSET 9.4119 3.9773 -0.7758
    CHANNELS 3 Zrotation Xrotation Yrotation
    JOINT LeftKnee
    {
      OFFSET 0.7532 -40.9383 0
      CHANNELS 3 Zrotation Xrotation Yrotation
      JOINT LeftAnkle
      {
        OFFSET 0 -40.1986 0
        CHANNELS 3 Zrotation Xrotation Yrotation
        JOINT LeftToe
        {
          OFFSET 0 -4.4182 9.239
          CHANNELS 3 Zrotation Xrotation Yrotation
          End Site
          {
            OFFSET 0 0 6.1981
          }
        }
      }
    }
  }
}
MOTION
Frames:	4
Frame Time:	0.0333333
-6.95466 13.9135 35.8405 -180 84.8772 180 -0.112004 -3.20866 -0.423955 -0.248414 -6.41638 -0.856223 -0.248415 -6.41639 -0.856225 1.13813e-006 -22.6016 1.52214e-006 -1.62375e-007 -7.54119 -5.5111e-007 1.29798 -11.9557 -50.2802 92.4056 1.67425 10.0106 28.0803 -30.4532 16.6937 17.6068 -9.21449 9.88117 -3.18055e-015 0 9.93923e-016 -3.18055e-015 0 -3.97569e-016 3.18055e-015 -3.97569e-016 1.19271e-015 -3.18055e-015 0 9.93923e-016 -0.0127928 0.00232556 9.13264e-005 3.86217e-032 -3.97569e-016 5.56597e-015 -3.18055e-015 0 9.93923e-016 -0.0160302 0.00298797 0.000861168 0 3.97569e-016 -0 -3.18055e-015 0 9.93923e-016 -0.012563 0.00311308 0.00282669 3.18055e-015 0 1.19271e-015 -3.18055e-015 0 9.93923e-016 -3.18055e-015 0 -3.97569e-016 3.18055e-015 -3.97569e-016 1.19271e-015 -1.38346 -12.6656 45.6457 -92.5332 -2.73445 -10.3075 -23.1092 -31.297 -13.6265 -16.9912 -7.48916 -9.87444 -2.20695e-032 -1.59028e-015 -7.95139e-016 -3.31043e-032 -1.59028e-015 -1.19271e-015 -3.18055e-015 -2.38542e-015 3.18055e-015 -2.20695e-032 -1.59028e-015 -7.95139e-016 0.0129721 0.00232051 -8.46991e-005 -3.18055e-015 1.11319e-014 2.18663e-015 -2.20695e-032 -1.59028e-015 -7.95139e-016 0.0162721 0.00301319 -0.000865506 -3.18055e-015 1.59028e-015 5.96354e-016 -2.20695e-032 -1.59028e-015 -7.95139e-016 0.0145772 0.00367229 -0.00326385 -6.36111e-015 0 -7.95139e-016 -2.20695e-032 -1.59028e-015 -7.95139e-016 -3.31043e-032 -1.59028e-015 -1.19271e-015 -3.18055e-015 -2.38542e-015 3.18055e-015 2.71418 -42.529 -0.478993 0.846468 45.973 0.552769 -8.26983 6.67715 -0.643947 7.10374e-007 -4.28108e-008 6.347e-007 -2.77183 -42.4297 0.583266 0.27654 49.948 -1.26282 8.18899 6.43199 0.762313 1.20608e-006 2.30267e-008 4.15518e-007 
-6.95517 14.1297 35.7543 -180 84.2498 180 -0.110016 -3.46456 -0.425197 -0.24652 -6.92822 -0.859436 -0.246521 -6.92824 -0.859437 -4.95729e-007 -22.2009 -7.06844e-007 6.24595e-008 -7.18552 -4.43465e-007 1.1047 -11.5947 -50.4599 92.4057 1.6743 10.0106 27.955 -30.3501 16.6292 17.4327 -9.39771 9.67182 3.261e-006 7.54375e-008 1.98384e-007 3.18055e-015 7.95139e-016 -7.95139e-016 1.37935e-032 7.95139e-016 -9.93923e-016 3.261e-006 7.54375e-008 1.98384e-007 -0.0127824 0.00232239 8.50469e-005 6.36111e-015 -7.95139e-016 5.1684e-015 3.261e-006 7.54375e-008 1.98384e-007 -0.0160657 0.00299934 0.00086445 -6.76822e-006 -1.23603e-005 -1.00092e-005 3.261e-006 7.54375e-008 1.98384e-007 -0.0126827 0.00314248 0.00284578 6.36111e-015 7.95139e-016 -2.78299e-015 3.261e-006 7.54375e-008 1.98384e-007 3.18055e-015 7.95139e-016 -7.95139e-016 1.37935e-032 7.95139e-016 -9.93923e-016 -1.2044 -12.3053 45.8404 -92.5332 -2.73446 -10.3074 -22.9861 -31.1702 -13.558 -16.8254 -7.6841 -9.66562 9.54166e-015 1.59028e-015 -1.19271e-015 6.36111e-015 0 -2.98177e-015 6.36111e-015 0 -3.77691e-015 9.54166e-015 1.59028e-015 -1.19271e-015 0.0130168 0.00232807 -9.38331e-005 -6.62086e-032 -3.18055e-015 -1.19271e-015 9.54166e-015 1.59028e-015 -1.19271e-015 0.0163231 0.00304009 -0.000882468 6.36111e-015 -3.97569e-015 -1.23246e-014 9.54166e-015 1.59028e-015 -1.19271e-015 0.0145063 0.00365387 -0.00324211 3.18055e-015 -7.95139e-016 2.78299e-015 9.54166e-015 1.59028e-015 -1.19271e-015 6.36111e-015 0 -2.98177e-015 6.36111e-015 0 -3.77691e-015 2.74335 -43.4283 -0.4692 0.855107 46.0035 0.546609 -8.27056 6.67761 -0.64351 -5.46639e-008 -1.68815e-008 2.06292e-007 -2.80412 -43.2228 0.574483 0.286393 49.9214 -1.26912 8.18887 6.42953 0.763133 2.05179e-007 -3.21478e-008 -6.06377e-007 
-6.95569 14.3461 35.6691 -180 83.6225 180 -0.108022 -3.72032 -0.426393 -0.24463 -7.43971 -0.862566 -0.24463 -7.43974 -0.862569 1.22987e-006 -21.8002 1.4793e-006 -7.43071e-007 -6.82984 -5.1662e-007 0.912857 -11.233 -50.6382 92.4055 1.67421 10.0106 27.8302 -30.2466 16.565 17.2579 -9.58034 9.46176 -6.36111e-015 -3.97569e-016 1.19271e-015 6.34499e-032 -7.95139e-016 4.57205e-015 -9.65542e-033 3.97569e-016 1.39149e-015 -6.36111e-015 -3.97569e-016 1.19271e-015 -0.0127374 0.00231497 8.38805e-005 9.54166e-015 7.95139e-016 -1.39149e-015 -6.36111e-015 -3.97569e-016 1.19271e-015 -0.0160023 0.00298522 0.000853202 3.18055e-015 0 7.95139e-016 -6.36111e-015 -3.97569e-016 1.19271e-015 -0.0125775 0.00311578 0.00282933 3.18055e-015 1.19271e-015 -2.38542e-015 -6.36111e-015 -3.97569e-016 1.19271e-015 6.34499e-032 -7.95139e-016 4.57205e-015 -9.65542e-033 3.97569e-016 1.39149e-015 -1.02687 -11.9444 46.0338 -92.5332 -2.7345 -10.3074 -22.8633 -31.0433 -13.4897 -16.6587 -7.87845 -9.45616 -3.18055e-015 -7.95139e-016 3.97569e-016 -3.18055e-015 -1.59028e-015 3.97569e-016 -3.18055e-015 -7.95139e-016 -1.98785e-016 -3.18055e-015 -7.95139e-016 3.97569e-016 0.0129057 0.00230181 -8.65902e-005 -0 0 3.97569e-016 -3.18055e-015 -7.95139e-016 3.97569e-016 0.0163846 0.00304299 -0.00087221 -3.18055e-015 1.59028e-015 -2.18663e-015 -3.18055e-015 -7.95139e-016 3.97569e-016 0.0145845 0.00368047 -0.0032621 3.18055e-015 -1.59028e-015 9.93923e-016 -3.18055e-015 -7.95139e-016 3.97569e-016 -3.18055e-015 -1.59028e-015 3.97569e-016 -3.18055e-015 -7.95139e-016 -1.98785e-016 2.7768 -44.2086 -0.458286 0.857987 45.9151 0.54609 -8.27128 6.67797 -0.643052 -1.7004e-006 1.64202e-008 -2.248e-007 -2.83538 -44.0695 0.565047 0.29475 49.9486 -1.27434 8.18871 6.42704 0.763966 -7.38226e-007 -4.14408e-008 -4.73895e-007 
-6.95622 14.5629 35.5848 -180 82.9952 180 -0.106021 -3.97577 -0.427537 -0.242741 -7.95061 -0.865608 -0.242742 -7.95065 -0.865611 -8.34934e-007 -21.3996 -1.37241e-006 -1.45523e-007 -6.4742 1.61504e-007 0.722399 -10.8709 -50.8149 92.4056 1.67427 10.0105 27.7053 -30.1432 16.5012 17.0824 -9.76231 9.25107 -4.96564e-032 7.95139e-016 3.57812e-015 3.18055e-015 7.95139e-016 3.37934e-015 1.63111e-006 1.77675e-006 9.7781e-008 -4.96564e-032 7.95139e-016 3.57812e-015 -0.0127932 0.00232287 9.20588e-005 2.05826e-006 -1.88019e-006 5.2938e-006 -4.96564e-032 7.95139e-016 3.57812e-015 -0.016036 0.00299117 0.000862884 3.18055e-015 1.23246e-014 -3.57812e-015 -4.96564e-032 7.95139e-016 3.57812e-015 -0.0124996 0.00310076 0.0028128 3.18055e-015 -7.95139e-016 -3.97569e-016 -4.96564e-032 7.95139e-016 3.57812e-015 3.18055e-015 7.95139e-016 3.37934e-015 1.63111e-006 1.77675e-006 9.7781e-008 -0.850818 -11.5829 46.2257 -92.5332 -2.73447 -10.3074 -22.7408 -30.9163 -13.422 -16.4913 -8.0721 -9.24598 1.82074e-030 8.74653e-015 -1.19271e-014 3.18055e-015 9.54166e-015 -8.94531e-015 3.18055e-015 7.15625e-015 -1.09332e-014 1.82074e-030 8.74653e-015 -1.19271e-014 0.0129181 0.00230782 -8.45684e-005 7.04331e-006 1.5638e-007 4.73024e-006 1.82074e-030 8.74653e-015 -1.19271e-014 0.01638 0.00304539 -0.000879544 -2.75869e-032 1.59028e-015 9.93923e-016 1.82074e-030 8.74653e-015 -1.19271e-014 0.0146457 0.00370076 -0.00327856 3.18055e-015 0 1.59028e-015 1.82074e-030 8.74653e-015 -1.19271e-014 3.18055e-015 9.54166e-015 -8.94531e-015 3.18055e-015 7.15625e-015 -1.09332e-014 2.80925 -45.0445 -0.446669 0.863528 45.8828 0.542923 -8.27198 6.67835 -0.642612 -3.97569e-015 -9.54166e-015 -7.95139e-016 -2.86469 -44.9831 0.555388 0.300804 50.0428 -1.27812 8.18858 6.42461 0.764777 -6.04603e-007 5.50869e-008 4.7335e-007 
